<svg width="32" height="32" viewBox="0 0 32 32" fill="none" xmlns="http://www.w3.org/2000/svg">
<g id="Frame">
<path id="Vector" d="M8.00619 12H26.5907L27.2574 9.33332H10.6729V6.66666H28.9651C29.7015 6.66666 30.2985 7.26362 30.2985 7.99999C30.2985 8.109 30.2851 8.21762 30.2586 8.32338L26.9253 21.6567C26.777 22.2503 26.2437 22.6667 25.6318 22.6667H6.67285C5.93648 22.6667 5.33952 22.0697 5.33952 21.3333V5.33332H2.67285V2.66666H6.67285C7.40924 2.66666 8.00619 3.26362 8.00619 3.99999V12ZM8.00619 30.6667C6.53342 30.6667 5.33952 29.4728 5.33952 28C5.33952 26.5272 6.53342 25.3333 8.00619 25.3333C9.47895 25.3333 10.6729 26.5272 10.6729 28C10.6729 29.4728 9.47895 30.6667 8.00619 30.6667ZM24.0062 30.6667C22.5334 30.6667 21.3395 29.4728 21.3395 28C21.3395 26.5272 22.5334 25.3333 24.0062 25.3333C25.479 25.3333 26.6729 26.5272 26.6729 28C26.6729 29.4728 25.479 30.6667 24.0062 30.6667Z" fill="#1F0404"/>
</g>
</svg>
