<svg width="40" height="40" viewBox="0 0 40 40" fill="none" xmlns="http://www.w3.org/2000/svg">
<rect x="0.5" y="0.5" width="39" height="39" stroke="#1F0404"/>
<path d="M24.5 11C27.5376 11 30 13.5 30 17C30 24 22.5 28 20 29.5C17.5 28 10 24 10 17C10 13.5 12.5 11 15.5 11C17.36 11 19 12 20 13C21 12 22.64 11 24.5 11ZM20.9339 26.6038C21.8155 26.0485 22.61 25.4955 23.3549 24.9029C26.3337 22.533 28 19.9435 28 17C28 14.6408 26.463 13 24.5 13C23.4241 13 22.2593 13.5691 21.4142 14.4142L20 15.8284L18.5858 14.4142C17.7407 13.5691 16.5759 13 15.5 13C13.5591 13 12 14.6565 12 17C12 19.9435 13.6663 22.533 16.6451 24.9029C17.39 25.4955 18.1845 26.0485 19.0661 26.6038C19.3646 26.7919 19.6611 26.9729 20 27.1752C20.3389 26.9729 20.6354 26.7919 20.9339 26.6038Z" fill="#1F0404"/>
</svg>
