<svg width="48" height="48" viewBox="0 0 48 48" fill="none" xmlns="http://www.w3.org/2000/svg">
<circle cx="24" cy="24" r="24" fill="#1F0404"/>
<path d="M24 34C18.4771 34 14 29.5228 14 24C14 18.4771 18.4771 14 24 14C29.5228 14 34 18.4771 34 24C34 29.5228 29.5228 34 24 34ZM24 32C28.4183 32 32 28.4183 32 24C32 19.5817 28.4183 16 24 16C19.5817 16 16 19.5817 16 24C16 28.4183 19.5817 32 24 32ZM19 24H21C21 25.6569 22.3431 27 24 27C25.6569 27 27 25.6569 27 24H29C29 26.7614 26.7614 29 24 29C21.2386 29 19 26.7614 19 24Z" fill="#FFF4F4"/>
</svg>
