<svg width="139" height="32" viewBox="0 0 139 32" fill="none" xmlns="http://www.w3.org/2000/svg">
<path d="M16.9403 23.7239C18.0425 24.8263 19.0568 25.3333 19.9973 25.3333C20.5017 25.3333 20.9043 25.2435 21.6465 24.9653L22.1689 24.762C23.5705 24.2013 24.2753 24 25.3307 24C26.9489 24 28.5024 24.7261 29.9792 26.1059L30.2736 26.3905L28.3879 28.2761C27.2856 27.1737 26.2713 26.6667 25.3307 26.6667C24.8264 26.6667 24.4239 26.7565 23.6816 27.0347L23.1592 27.238C21.7576 27.7987 21.0528 28 19.9973 28C18.3792 28 16.8257 27.2739 15.3489 25.8941L15.0545 25.6095L16.9403 23.7239ZM11.9974 4C11.9974 6.20913 13.7883 8 15.9973 8C18.2065 8 19.9973 6.20913 19.9973 4H27.9973C28.7337 4 29.3307 4.59696 29.3307 5.33333V14.6667C29.3307 15.4031 28.7337 16 27.9973 16H15.9973C14.5916 16 13.4399 17.0879 13.338 18.4676L13.3307 18.6667V28H7.9974C7.26101 28 6.66406 27.4031 6.66406 26.6667L6.66273 15.9987L3.9974 16C3.26101 16 2.66406 15.4031 2.66406 14.6667V5.33333C2.66406 4.59696 3.26101 4 3.9974 4H11.9974ZM16.9403 18.3905C18.0425 19.4929 19.0568 20 19.9973 20C20.5017 20 20.9043 19.9101 21.6465 19.632L22.1689 19.4287C23.5705 18.868 24.2753 18.6667 25.3307 18.6667C26.9489 18.6667 28.5024 19.3928 29.9792 20.7725L30.2736 21.0572L28.3879 22.9428C27.2856 21.8404 26.2713 21.3333 25.3307 21.3333C24.8264 21.3333 24.4239 21.4232 23.6816 21.7013L23.1592 21.9047C21.7576 22.4653 21.0528 22.6667 19.9973 22.6667C18.3792 22.6667 16.8257 21.9405 15.3489 20.5608L15.0545 20.2761L16.9403 18.3905Z" fill="#1F0404"/>
<path d="M54.8459 18.644C54.8459 22.388 52.8539 24.86 48.0779 24.86C43.3019 24.86 41.3099 22.388 41.3099 18.644V7.34H44.1659V18.644C44.1659 21.236 45.4619 22.412 48.0779 22.412C50.7179 22.412 52.0139 21.236 52.0139 18.644V7.34H54.8459V18.644ZM57.5578 24.5V7.34H64.8778C68.4058 7.34 70.6858 9.14 70.6858 12.26C70.6858 14.66 69.4618 16.052 67.4938 16.532V16.58C71.4538 17.324 70.0138 24.044 70.9258 24.332V24.5H67.9258C67.1338 23.78 68.7418 17.876 64.6138 17.876H60.4138V24.5H57.5578ZM60.4138 9.764V15.428H64.2778C66.0298 15.428 67.8538 15.092 67.8538 12.596C67.8538 10.124 66.0298 9.764 64.2778 9.764H60.4138ZM85.9625 11.66C85.9625 13.772 84.7145 14.756 83.2985 15.236V15.284C85.0985 15.596 86.6345 16.916 86.6345 19.484C86.6345 22.796 84.3545 24.5 80.8025 24.5H73.0265V7.34H80.3945C83.9225 7.34 85.9625 8.9 85.9625 11.66ZM75.8825 14.444H80.2985C82.3385 14.444 83.1065 13.628 83.1065 12.116C83.1065 10.604 82.1705 9.764 80.4665 9.764H75.8825V14.444ZM75.8825 16.58V22.076H80.5865C83.0345 22.076 83.7785 20.924 83.7785 19.316C83.7785 17.564 82.6985 16.58 80.8985 16.58H75.8825ZM98.6902 20.444H91.6822L90.2902 24.5H87.3862L93.6982 7.34H96.6982L102.986 24.5H100.082L98.6902 20.444ZM92.4742 18.068H97.9222L95.2342 9.956H95.1862L92.4742 18.068ZM104.62 24.5V7.34H107.812L115.54 20.228H115.588V7.34H118.444V24.5H115.276L107.524 11.66H107.476V24.5H104.62Z" fill="#1F0404"/>
<path d="M126.898 14.5V8.15H124.518V7.35H130.178V8.15H127.798V14.5H126.898ZM131.071 14.5V7.35H132.301L134.541 13.29H134.561L136.801 7.35H138.031V14.5H137.131V8.62H137.111L134.951 14.5H134.151L131.991 8.62H131.971V14.5H131.071Z" fill="#1F0404"/>
</svg>
